<?xml version="1.0" encoding="UTF-8"?>
<svg width="72px" height="58px" viewBox="0 0 72 58" version="1.1" xmlns="http://www.w3.org/2000/svg" xmlns:xlink="http://www.w3.org/1999/xlink">
    <!-- Generator: Sketch 46.2 (44496) - http://www.bohemiancoding.com/sketch -->
    <title>line_chart_L</title>
    <desc>Created with Sketch.</desc>
    <defs></defs>
    <g id="Mapedit" stroke="none" stroke-width="1" fill="none" fill-rule="evenodd">
        <g id="User_Profile" transform="translate(-1004.000000, -710.000000)" fill="#3498DB">
            <g id="user-plan" transform="translate(167.000000, 280.000000)">
                <path d="M886.654018,464.65755 C886.891944,464.593922 887.142011,464.56 887.4,464.56 C887.853496,464.56 888.28251,464.664816 888.664139,464.851545 L900.517118,439.432748 L903.127284,440.649889 L890.279683,467.396814 C890.279894,467.411184 890.28,467.42558 890.28,467.44 C890.28,469.03058 888.99058,470.32 887.4,470.32 C885.80942,470.32 884.52,469.03058 884.52,467.44 C884.52,467.182011 884.553922,466.931944 884.61755,466.694018 L873.745982,455.82245 C873.508056,455.886078 873.257989,455.92 873,455.92 C872.947073,455.92 872.894479,455.918572 872.842255,455.915753 L861.347074,472.332573 C861.43343,472.606316 861.48,472.89772 861.48,473.2 C861.48,474.79058 860.19058,476.08 858.6,476.08 C857.00942,476.08 855.72,474.79058 855.72,473.2 C855.72,473.104055 855.724692,473.009207 855.733858,472.915671 L844.659947,455.863343 L847.075318,454.294782 L857.598419,470.498937 C857.91036,470.383222 858.247797,470.32 858.6,470.32 C858.804714,470.32 859.00444,470.341359 859.197071,470.38197 L870.429561,454.340312 C870.231572,453.949703 870.12,453.507881 870.12,453.04 C870.12,451.44942 871.40942,450.16 873,450.16 C874.59058,450.16 875.88,451.44942 875.88,453.04 C875.88,453.297989 875.846078,453.548056 875.78245,453.785982 L886.654018,464.65755 Z M837,430 L909,430 L909,487.6 L837,487.6 L837,430 Z M839.88,432.88 L839.88,484.72 L906.12,484.72 L906.12,432.88 L839.88,432.88 Z M887.4,468.88 C888.19529,468.88 888.84,468.23529 888.84,467.44 C888.84,466.64471 888.19529,466 887.4,466 C886.60471,466 885.96,466.64471 885.96,467.44 C885.96,468.23529 886.60471,468.88 887.4,468.88 Z M873,454.48 C873.79529,454.48 874.44,453.83529 874.44,453.04 C874.44,452.24471 873.79529,451.6 873,451.6 C872.20471,451.6 871.56,452.24471 871.56,453.04 C871.56,453.83529 872.20471,454.48 873,454.48 Z M858.6,474.64 C859.39529,474.64 860.04,473.99529 860.04,473.2 C860.04,472.40471 859.39529,471.76 858.6,471.76 C857.80471,471.76 857.16,472.40471 857.16,473.2 C857.16,473.99529 857.80471,474.64 858.6,474.64 Z" id="line_chart_L"></path>
            </g>
        </g>
    </g>
</svg>