<?xml version="1.0" encoding="UTF-8"?>
<svg width="51px" height="72px" viewBox="0 0 51 72" version="1.1" xmlns="http://www.w3.org/2000/svg" xmlns:xlink="http://www.w3.org/1999/xlink">
    <!-- Generator: Sketch 46.2 (44496) - http://www.bohemiancoding.com/sketch -->
    <title>location_L</title>
    <desc>Created with Sketch.</desc>
    <defs></defs>
    <g id="Mapedit" stroke="none" stroke-width="1" fill="none" fill-rule="evenodd">
        <g id="User_Profile" transform="translate(-308.000000, -703.000000)" fill="#3498DB">
            <g id="user-plan" transform="translate(167.000000, 280.000000)">
                <path d="M166.5,494.766975 C160.438156,494.766977 141,462.583262 141,448.5 C141,434.416738 152.416738,423 166.5,423 C180.583262,423 192,434.416738 192,448.5 C192,462.583262 172.561844,494.766975 166.5,494.766975 Z M166.5,491.919456 C170.002641,491.919456 189.0389,461.627066 189.0389,448.717409 C189.0389,435.608608 178.926407,426 166.5,426 C154.073593,426 143.899029,435.836586 143.899028,448.717409 C143.899028,461.598232 162.707308,491.919456 166.5,491.919456 Z M166.5,457.5 C161.529437,457.5 157.5,453.470563 157.5,448.5 C157.5,443.529437 161.529437,439.5 166.5,439.5 C171.470563,439.5 175.5,443.529437 175.5,448.5 C175.5,453.470563 171.470563,457.5 166.5,457.5 Z M166.5,454.5 C169.813709,454.5 172.5,451.813709 172.5,448.5 C172.5,445.186291 169.813709,442.5 166.5,442.5 C163.186291,442.5 160.5,445.186291 160.5,448.5 C160.5,451.813709 163.186291,454.5 166.5,454.5 Z" id="location_L"></path>
            </g>
        </g>
    </g>
</svg>