<?xml version="1.0" encoding="UTF-8"?>
<svg width="72px" height="63px" viewBox="0 0 72 63" version="1.1" xmlns="http://www.w3.org/2000/svg" xmlns:xlink="http://www.w3.org/1999/xlink">
    <!-- Generator: Sketch 46.2 (44496) - http://www.bohemiancoding.com/sketch -->
    <title>map_L</title>
    <desc>Created with Sketch.</desc>
    <defs></defs>
    <g id="Mapedit" stroke="none" stroke-width="1" fill="none" fill-rule="evenodd">
        <g id="User_Profile" transform="translate(-657.000000, -556.000000)" fill="#3498DB">
            <g id="user-plan" transform="translate(167.000000, 280.000000)">
                <path d="M513.208059,299.421177 L513.208059,279.383447 L493,285.675766 L493,334.905206 L513.208059,328.368966 L513.208059,301.017443 L509.892207,302.224315 L509.379176,300.814776 L513.208059,299.421177 Z M553.05276,293.852572 L552.25,301.5 L551.997602,301.5 L551.555764,293.890857 C550.652863,293.598273 550,292.750379 550,291.75 C550,290.507359 551.007359,289.5 552.25,289.5 C553.492641,289.5 554.5,290.507359 554.5,291.75 C554.5,292.709834 553.898985,293.529293 553.05276,293.852572 Z M537.97868,283.55998 L562,276 L562,331.281693 L537.97868,339 L514.147898,331.281693 L490,339 L490,283.55998 L514.147898,276 L537.97868,283.55998 Z M514.88362,278.989197 L514.88362,328.467528 L537.257287,335.859707 L537.257287,286.47994 L514.88362,278.989197 Z M538.932849,286.381378 L538.932849,335.85971 L559,329.115661 L559,280.060825 L538.932849,286.381378 Z M552.970569,304.416889 L549.473412,307.24883 L548.529431,306.083111 L552.026588,303.25117 L552.970569,304.416889 Z M547.996786,309.645713 L545.815143,313.581502 L544.503214,312.854287 L546.684857,308.918498 L547.996786,309.645713 Z M543.70306,315.904431 L540.994893,319.498291 L539.79694,318.595569 L542.505107,315.001709 L543.70306,315.904431 Z M532.973412,316.75117 L536.470569,319.583111 L535.526588,320.74883 L532.029431,317.916889 L532.973412,316.75117 Z M529.193718,310.444452 L531.578354,314.260669 L530.306282,315.055548 L527.921646,311.239331 L529.193718,310.444452 Z M524.226524,304.610492 L527.352486,307.847521 L526.273476,308.889508 L523.147514,305.652479 L524.226524,304.610492 Z M517.645713,300.503214 L521.581502,302.684857 L520.854287,303.996786 L516.918498,301.815143 L517.645713,300.503214 Z M501.898935,304.06224 L505.943508,302.089569 L506.601065,303.43776 L502.556492,305.410431 L501.898935,304.06224 Z M496.147514,309.347521 L499.273476,306.110492 L500.352486,307.152479 L497.226524,310.389508 L496.147514,309.347521 Z" id="map_L"></path>
            </g>
        </g>
    </g>
</svg>