<?xml version="1.0" encoding="UTF-8"?>
<svg width="72px" height="72px" viewBox="0 0 72 72" version="1.1" xmlns="http://www.w3.org/2000/svg" xmlns:xlink="http://www.w3.org/1999/xlink">
    <!-- Generator: Sketch 46.2 (44496) - http://www.bohemiancoding.com/sketch -->
    <title>memo_L</title>
    <desc>Created with Sketch.</desc>
    <defs></defs>
    <g id="Mapedit" stroke="none" stroke-width="1" fill="none" fill-rule="evenodd">
        <g id="User_Profile" transform="translate(-297.000000, -847.000000)" fill="#3498DB">
            <g id="user-plan" transform="translate(167.000000, 280.000000)">
                <path d="M193,576 L202,576 L202,639 L139,639 L139,630 L130,630 L130,567 L193,567 L193,576 Z M193,579 L193,630 L142,630 L142,636 L199,636 L199,579 L193,579 Z M133,570 L133,627 L190,627 L190,570 L133,570 Z M141.503242,585 L178.496758,585 C179.062012,585 179.5,585.447248 179.5,585.998957 L179.5,587.001043 C179.5,587.55734 179.050833,588 178.496758,588 L141.503242,588 C140.937988,588 140.5,587.552752 140.5,587.001043 L140.5,585.998957 C140.5,585.44266 140.949167,585 141.503242,585 Z M141.492965,594 L166.507035,594 C167.053891,594 167.5,594.447248 167.5,594.998957 L167.5,596.001043 C167.5,596.55734 167.055434,597 166.507035,597 L141.492965,597 C140.946109,597 140.5,596.552752 140.5,596.001043 L140.5,594.998957 C140.5,594.44266 140.944566,594 141.492965,594 Z" id="memo_L"></path>
            </g>
        </g>
    </g>
</svg>