<?xml version="1.0" encoding="UTF-8"?>
<svg width="52px" height="72px" viewBox="0 0 52 72" version="1.1" xmlns="http://www.w3.org/2000/svg" xmlns:xlink="http://www.w3.org/1999/xlink">
    <!-- Generator: Sketch 46.2 (44496) - http://www.bohemiancoding.com/sketch -->
    <title>office_chair_L</title>
    <desc>Created with Sketch.</desc>
    <defs></defs>
    <g id="Mapedit" stroke="none" stroke-width="1" fill="none" fill-rule="evenodd">
        <g id="User_Profile" transform="translate(-667.000000, -847.000000)" fill="#3498DB">
            <g id="user-plan" transform="translate(167.000000, 280.000000)">
                <path d="M542.542817,614.52 L543.082387,614.52 C544.738481,614.52 546.08,615.862073 546.08,617.517605 L546.08,620.162395 C546.08,621.81 544.737923,623.16 543.082387,623.16 L508.757613,623.16 C507.101519,623.16 505.76,621.817926 505.76,620.162395 L505.76,617.517605 C505.76,615.87 507.102077,614.52 508.757613,614.52 L509.30201,614.52 C508.016656,613.41952 507.2,611.784832 507.2,609.959846 L507.2,605.443636 C506.746068,605.720426 506.21284,605.88 505.642395,605.88 L502.997605,605.88 C501.35,605.88 500,604.538344 500,602.883328 L500,597.356671 C500,595.704036 501.342073,594.36 502.997605,594.36 L505.642395,594.36 C506.211576,594.36 506.745241,594.520116 507.2,594.797955 L507.2,587.400153 C507.2,584.083107 509.883882,581.4 513.194618,581.4 L538.645382,581.4 C541.947407,581.4 544.64,584.08636 544.64,587.400153 L544.64,594.796363 C545.093932,594.519574 545.62716,594.36 546.197605,594.36 L548.842395,594.36 C550.49,594.36 551.84,595.701655 551.84,597.356671 L551.84,602.883328 C551.84,604.535964 550.497926,605.88 548.842395,605.88 L546.197605,605.88 C545.628423,605.88 545.094759,605.719883 544.64,605.442045 L544.64,609.959846 C544.64,611.786023 543.826521,613.420055 542.542817,614.52 Z M518.400102,567 L533.439898,567 C535.651262,567 537.44,568.789431 537.44,570.996806 L537.44,574.523194 C537.44,576.72 535.649093,578.52 533.439898,578.52 L518.400102,578.52 C516.188738,578.52 514.4,576.730569 514.4,574.523194 L514.4,570.996806 C514.4,568.8 516.190907,567 518.400102,567 Z M519.279117,569.88 C518.175035,569.88 517.28,570.78 517.28,571.878403 L517.28,573.641597 C517.28,574.745284 518.184718,575.64 519.279117,575.64 L532.560883,575.64 C533.664965,575.64 534.56,574.74 534.56,573.641597 L534.56,571.878403 C534.56,570.774716 533.655282,569.88 532.560883,569.88 L519.279117,569.88 Z M514.076242,584.28 C511.869179,584.28 510.08,586.067471 510.08,588.280789 L510.08,610.290571 C510.08,612.500146 511.873777,614.291361 514.085504,614.291361 L536.955581,614.291361 C539.16776,614.291361 541.008668,612.503889 541.067588,610.290571 L541.653497,588.280789 C541.712317,586.071214 539.965976,584.28 537.763757,584.28 L514.076242,584.28 Z M503.887284,597.24 C503.330977,597.24 502.88,597.691977 502.88,598.243315 L502.88,601.996684 C502.88,602.5508 503.33,603 503.887284,603 L504.752716,603 C505.309023,603 505.76,602.548022 505.76,601.996684 L505.76,598.243315 C505.76,597.6892 505.31,597.24 504.752716,597.24 L503.887284,597.24 Z M547.087284,597.24 C546.530976,597.24 546.08,597.691977 546.08,598.243315 L546.08,601.996684 C546.08,602.5508 546.53,603 547.087284,603 L547.952716,603 C548.509023,603 548.96,602.548022 548.96,601.996684 L548.96,598.243315 C548.96,597.6892 548.51,597.24 547.952716,597.24 L547.087284,597.24 Z M509.637042,617.4 C509.086391,617.4 508.64,617.85 508.64,618.407284 L508.64,619.272716 C508.64,619.829023 509.089606,620.28 509.637042,620.28 L542.202958,620.28 C542.753609,620.28 543.2,619.83 543.2,619.272716 L543.2,618.407284 C543.2,617.850976 542.750394,617.4 542.202958,617.4 L509.637042,617.4 Z M527.36,630.399087 L541.76,639 L524.474959,639 L515.078052,639 L524.474959,633.458422 L524.474959,639 L510.08,639 L524.48,630.399087 L524.48,623.16 L527.36,623.16 L527.36,630.399087 Z M524.48,578.52 L527.36,578.52 L527.36,581.4 L524.48,581.4 L524.48,578.52 Z" id="office_chair_L"></path>
            </g>
        </g>
    </g>
</svg>
