<?xml version="1.0" encoding="UTF-8"?>
<svg width="80px" height="72px" viewBox="0 0 80 72" version="1.1" xmlns="http://www.w3.org/2000/svg" xmlns:xlink="http://www.w3.org/1999/xlink">
    <!-- Generator: Sketch 46.2 (44496) - http://www.bohemiancoding.com/sketch -->
    <title>folder_L</title>
    <desc>Created with Sketch.</desc>
    <defs></defs>
    <g id="Mapedit" stroke="none" stroke-width="1" fill="none" fill-rule="evenodd">
        <g id="User_Profile" transform="translate(-297.000000, -547.000000)" fill="#3498DB">
            <g id="user-plan" transform="translate(167.000000, 280.000000)">
                <path d="M209.2,288.6 C209.219114,288.6 209.228777,288.6 209.228777,288.6 L209.228775,332.995613 C209.228775,336.308095 206.541768,339 203.227176,339 L136.030375,339 C132.709285,339 130.028777,336.311744 130.028777,332.995613 L130.028777,292.2 L130,292.2 C130,292.2 130,270.993015 130,270.993015 C130,268.79212 131.790095,267 133.998288,267 L151.862977,267 C154.063284,267 155.861265,268.792942 155.861265,271.004647 C155.861265,271.004647 155.861265,277.244094 155.861265,277.244094 L205.190926,277.244094 C207.410073,277.244094 209.2,279.038496 209.2,281.252003 C209.2,281.252003 209.2,285.409086 209.2,288.6 Z M133.6,292.2 C133.6,292.2 133.6,331.393981 133.6,331.393981 C133.6,333.606444 135.397748,335.4 137.599415,335.4 L201.600585,335.4 C203.809401,335.4 205.6,333.612383 205.6,331.393981 L205.6,292.2 C205.6,292.2 133.6,292.2 133.6,292.2 Z M136.460513,270.280381 C134.805139,270.280381 133.463192,271.619218 133.463192,273.279252 C133.463192,273.279252 133.463192,288.690462 133.463193,288.690462 C133.463193,288.690462 205.61446,288.690463 205.61446,288.690463 L205.61446,283.97977 C205.61446,282.31999 204.269245,280.974472 202.621786,280.974472 L151.738434,280.974472 L151.738434,273.28774 C151.738434,271.626821 150.394612,270.280381 148.741114,270.280381 L136.460513,270.280381 Z" id="folder_L"></path>
            </g>
        </g>
    </g>
</svg>