<?xml version="1.0" encoding="UTF-8"?>
<svg width="58px" height="73px" viewBox="0 0 58 73" version="1.1" xmlns="http://www.w3.org/2000/svg" xmlns:xlink="http://www.w3.org/1999/xlink">
    <!-- Generator: Sketch 46.2 (44496) - http://www.bohemiancoding.com/sketch -->
    <title>todos_L</title>
    <desc>Created with Sketch.</desc>
    <defs></defs>
    <g id="Mapedit" stroke="none" stroke-width="1" fill="none" fill-rule="evenodd">
        <g id="User_Profile" transform="translate(-1011.000000, -545.000000)" fill="#3498DB">
            <g id="user-plan" transform="translate(167.000000, 280.000000)">
                <path d="M844,280.356797 L901.643203,280.356797 L901.643203,338 L844,338 L844,280.356797 Z M846.88216,280.356797 L846.88216,335.11784 L898.761043,335.11784 L898.761043,280.356797 L846.88216,280.356797 Z M862.285066,302.857004 L889.122458,302.857004 C889.661844,302.857004 890.114562,303.308319 890.114562,303.865044 L890.114562,304.731125 C890.114562,305.288827 889.670382,305.739164 889.122458,305.739164 L862.285066,305.739164 C861.745679,305.739164 861.292961,305.28785 861.292961,304.731125 L861.292961,303.865044 C861.292961,303.307342 861.737141,302.857004 862.285066,302.857004 Z M855.528641,302.857004 L858.410801,302.857004 L858.410801,305.739164 L855.528641,305.739164 L855.528641,302.857004 Z M862.285066,313.427749 L889.122458,313.427749 C889.661844,313.427749 890.114562,313.879064 890.114562,314.435789 L890.114562,315.301869 C890.114562,315.859572 889.670382,316.309909 889.122458,316.309909 L862.285066,316.309909 C861.745679,316.309909 861.292961,315.858594 861.292961,315.301869 L861.292961,314.435789 C861.292961,313.878087 861.737141,313.427749 862.285066,313.427749 Z M855.528641,313.427749 L858.410801,313.427749 L858.410801,316.309909 L855.528641,316.309909 L855.528641,313.427749 Z M862.285066,323.998494 L889.122458,323.998494 C889.661844,323.998494 890.114562,324.449809 890.114562,325.006534 L890.114562,325.872614 C890.114562,326.430316 889.670382,326.880654 889.122458,326.880654 L862.285066,326.880654 C861.745679,326.880654 861.292961,326.429339 861.292961,325.872614 L861.292961,325.006534 C861.292961,324.448831 861.737141,323.998494 862.285066,323.998494 Z M855.528641,323.998494 L858.410801,323.998494 L858.410801,326.880654 L855.528641,326.880654 L855.528641,323.998494 Z M870.787328,289.843711 C870.787328,289.843711 858.345358,278.115683 858.345358,278.115683 C857.943976,277.737333 857.265961,277.704888 856.826223,278.046907 L856.216172,278.521391 C855.778558,278.861757 855.730695,279.451367 856.123864,279.853244 C856.123864,279.853244 870.787328,294.841487 870.787328,294.841488 C870.787328,294.841488 890.624902,268.231713 890.624902,268.231713 C890.956608,267.786768 890.887099,267.125689 890.474539,266.759493 L889.683002,266.056909 C889.268252,265.688769 888.661454,265.754986 888.33864,266.190038 C888.33864,266.190038 870.787327,289.843711 870.787328,289.843711 Z" id="todos_L"></path>
            </g>
        </g>
    </g>
</svg>