<?xml version="1.0" encoding="UTF-8"?>
<svg width="57px" height="59px" viewBox="0 0 57 59" version="1.1" xmlns="http://www.w3.org/2000/svg" xmlns:xlink="http://www.w3.org/1999/xlink">
    <!-- Generator: Sketch 46.2 (44496) - http://www.bohemiancoding.com/sketch -->
    <title>wrench_L</title>
    <desc>Created with Sketch.</desc>
    <defs></defs>
    <g id="Mapedit" stroke="none" stroke-width="1" fill="none" fill-rule="evenodd">
        <g id="User_Profile" transform="translate(-660.000000, -703.000000)" fill="#3498DB">
            <g id="user-plan" transform="translate(167.000000, 280.000000)">
                <path d="M534.05147,430.748923 C531.224724,435.07819 526.126641,437.729065 526.126641,437.729065 L528.701626,482.137147 C528.894006,485.454927 526.364918,488.129065 523.053855,488.129065 L517.764275,488.129065 C514.450105,488.129065 511.92574,485.446392 512.119008,482.137147 L514.712554,437.729065 C514.712554,437.729065 510.226048,435.381056 507.449065,430.748923 C504.672082,426.11679 516.027579,419.048362 516.027579,419.048362 L516.027579,427.607508 L520.520107,429.586609 L524.864548,427.607508 L524.864549,416.199572 C524.864549,416.199572 536.878217,426.419656 534.05147,430.748923 Z M531.572873,429.539776 C532.228545,427.525924 527.545171,422.748882 527.545171,422.748882 L527.545171,429.539775 L520.379606,432.677637 L513.214042,429.539775 L513.214042,424.48173 C513.214042,424.48173 510.419312,427.388047 509.93568,428.415766 C508.81167,430.804287 517.663249,436.377503 517.663249,436.377503 L514.726648,481.2497 C514.582096,483.458488 516.246831,485.249065 518.461643,485.249065 L522.034683,485.249065 C524.242015,485.249065 525.926901,483.45174 525.798857,481.2497 L523.189631,436.377503 C523.189631,436.377503 530.9172,431.553627 531.572873,429.539776 Z M520.409065,483.809065 C518.023195,483.809065 516.089065,481.874935 516.089065,479.489065 C516.089065,477.103195 518.023195,475.169065 520.409065,475.169065 C522.794935,475.169065 524.729065,477.103195 524.729065,479.489065 C524.729065,481.874935 522.794935,483.809065 520.409065,483.809065 Z M520.409065,482.369065 C521.999645,482.369065 523.289065,481.079645 523.289065,479.489065 C523.289065,477.898485 521.999645,476.609065 520.409065,476.609065 C518.818485,476.609065 517.529065,477.898485 517.529065,479.489065 C517.529065,481.079645 518.818485,482.369065 520.409065,482.369065 Z" id="wrench_L" transform="translate(521.129065, 452.129065) rotate(-45.000000) translate(-521.129065, -452.129065) "></path>
            </g>
        </g>
    </g>
</svg>